<?xml version="1.0" encoding="UTF-8"?><svg id="Layer_1" xmlns="http://www.w3.org/2000/svg" xmlns:xlink="http://www.w3.org/1999/xlink" viewBox="0 0 630 266.64"><defs><style>.cls-1{filter:url(#drop-shadow-1);}.cls-1,.cls-2,.cls-3,.cls-4{fill:#6455a4;}.cls-2{filter:url(#drop-shadow-3);}.cls-3{filter:url(#drop-shadow-2);}.cls-4{filter:url(#drop-shadow-4);}</style><filter id="drop-shadow-1" filterUnits="userSpaceOnUse"><feOffset dx="12" dy="12"/><feGaussianBlur result="blur" stdDeviation="8"/><feFlood flood-color="#494079" flood-opacity=".29"/><feComposite in2="blur" operator="in"/><feComposite in="SourceGraphic"/></filter><filter id="drop-shadow-2" filterUnits="userSpaceOnUse"><feOffset dx="12" dy="12"/><feGaussianBlur result="blur-2" stdDeviation="8"/><feFlood flood-color="#494079" flood-opacity=".29"/><feComposite in2="blur-2" operator="in"/><feComposite in="SourceGraphic"/></filter><filter id="drop-shadow-3" filterUnits="userSpaceOnUse"><feOffset dx="12" dy="12"/><feGaussianBlur result="blur-3" stdDeviation="8"/><feFlood flood-color="#494079" flood-opacity=".29"/><feComposite in2="blur-3" operator="in"/><feComposite in="SourceGraphic"/></filter><filter id="drop-shadow-4" filterUnits="userSpaceOnUse"><feOffset dx="12" dy="12"/><feGaussianBlur result="blur-4" stdDeviation="8"/><feFlood flood-color="#494079" flood-opacity=".29"/><feComposite in2="blur-4" operator="in"/><feComposite in="SourceGraphic"/></filter></defs><path class="cls-1" d="m56.08,230.41h-1.23c-11.15-.74-20.87-4.84-29.15-12.3-9.02-8.61-13.53-19.31-13.53-32.1,0-9.27,2.71-17.75,8.12-25.46,3.03-3.94,6.56-5.9,10.58-5.9,2.13,0,4.43.57,6.89,1.72,2.87,1.72,4.75,4.35,5.66,7.87.33,1.15.49,2.26.49,3.32,0,2.21-.66,4.31-1.97,6.27-1.07,1.48-2.01,2.99-2.83,4.55l.37-.74v.12c-.25.25-.39.49-.43.74-.04.25-.1.41-.18.49-.49,1.4-.78,2.5-.86,3.32l-.37,1.48c-.08,0-.12-.08-.12-.25,0-.25.08-.62.25-1.11v.98c-.08.25-.12,2.13-.12,5.66,0,.33.08.62.25.86v.25l.12-.25c0-.08-.02-.23-.06-.43-.04-.2-.18-.63-.43-1.29l.62,2.83.98,3.2.12.12c0,.08-.04.12-.12.12-.33-.66-.49-1.06-.49-1.23v-.25c0,.41.7,1.72,2.09,3.94l.62.98-.98-1.35,1.23,1.48,2.21,2.34.49.37,2.58,1.72.49.25c1.23.82,2.01,1.23,2.34,1.23l-1.6-.74c.16,0,.82.21,1.97.62,1.15.41,2.21.74,3.2.98.25,0,.53.04.86.12.33.08.49.17.49.25l-.12-.12c-.74,0-1.27-.08-1.6-.25h-.25c.74.17,1.68.25,2.83.25,1.97,0,3.08-.04,3.32-.12h.86l-.98-.12c-.25,0-.45.04-.62.12h-.37c0,.08.29.12.86.12,2.79-.49,4.84-1.06,6.15-1.72l.86-.25c-1.15.33-1.76.53-1.85.62.16,0,.45-.08.86-.25h.12c.82-.41,1.66-.84,2.52-1.29.86-.45,1.7-.96,2.52-1.54.82-.57,1.68-1.06,2.58-1.48l-1.35.86h.12c0-.08.1-.18.31-.31.2-.12.39-.26.55-.43s.37-.33.62-.49c1.39-1.06,2.83-2.46,4.31-4.18l1.35-1.48-.62.74c.33-.33.49-.57.49-.74.66-.66,1.89-2.62,3.69-5.9,0-.16.02-.29.06-.37.04-.08.08-.16.12-.25.04-.08.08-.16.12-.25.04-.08.1-.16.18-.25-.08.17-.14.29-.18.37-.04.08-.14.29-.31.62-.17.33-.25.57-.25.74,0-.08.04-.18.12-.31.08-.12.14-.26.18-.43.04-.16.1-.29.18-.37,5.66-13.2,10.21-24.11,13.65-32.72,8.77-22.63,18.65-50.84,29.64-84.62,1.15-3.36,3.16-5.86,6.03-7.5,1.89-.98,3.89-1.48,6.03-1.48,5.08,0,8.81,2.13,11.19,6.4,1.06,1.97,1.6,3.98,1.6,6.03,0,1.15-.17,2.34-.49,3.57-12.79,39.93-24.27,72.12-34.44,96.56l-2.21,5.29c-2.95,7.38-6.11,14.68-9.47,21.89-4.76,9.1-11.48,16.44-20.17,22.02-8.36,5.49-17.47,8.24-27.31,8.24Zm87.95-65.19c-8.04,0-18.7-2.21-31.98-6.64l-2.46-.74c-3.44-1.15-5.95-3.2-7.5-6.15-1.07-1.97-1.6-4.06-1.6-6.27,0-4.84,2.13-8.49,6.4-10.95,2.05-1.06,4.1-1.6,6.15-1.6,1.48,0,4.18.66,8.12,1.97,6.72,2.3,12.26,3.81,16.61,4.55l1.85.49-.25-.12c-.57,0-.94-.04-1.11-.12l5.04.37c2.46,0,4.26-.08,5.41-.25v.12h-.62l-.37.12h-.25c0-.08.02-.12.06-.12s.23-.04.55-.12l2.71-.49c2.54-.57,4.43-1.15,5.66-1.72l1.48-.49-1.72.74.25-.12c.08,0,.2-.08.37-.25,4.18-1.8,6.77-3.2,7.75-4.18l1.23-.74-.98.74,2.95-2.46,5.29-5.54-.25.49-.74.86h-.12l.74-.98c2.79-3.69,5.25-7.83,7.38-12.42l1.11-2.46-.12.37c-.17.25-.37.74-.62,1.48l.49-1.48c2.79-6.31,4.84-12.83,6.15-19.56v.37c0-.82.08-1.48.25-1.97.25-3.44.37-5.86.37-7.26,0-3.77-.08-5.98-.25-6.64l-.37-.86.12.37c0,.33.12.82.37,1.48-.25-.66-.37-1.35-.37-2.09-.74-3.94-1.72-7.67-2.95-11.19l-.37-.49c0,.17.29.74.86,1.72l-.86-1.72c-.57-1.8-1.97-4.35-4.18-7.63l-.62-.74c.16,0,.33.18.49.55.16.37.33.55.49.55-.08,0-.23-.12-.43-.37-.21-.25-.39-.45-.55-.62-.17-.16-.29-.33-.37-.49-1.89-2.13-3.08-3.36-3.57-3.69-1.31-.9-1.97-1.56-1.97-1.97,0,.33.29.66.86.98l.37.12c0-.08-.04-.14-.12-.18-.08-.04-.49-.31-1.23-.8-1.97-1.56-4.67-3.24-8.12-5.04-.82-.41-1.56-.74-2.21-.98l-.74-.25c0,.25.57.45,1.72.62-.57,0-1.85-.49-3.81-1.48-4.67-1.72-9.06-2.91-13.16-3.57-.66-.16-1.27-.25-1.85-.25,0,.08.08.17.25.25h1.48c-.33,0-1.93-.2-4.8-.62-1.4-.08-3.57-.12-6.52-.12-3.28,0-5.49.08-6.64.25l-1.48.12.98-.25h.62c-.33.17-.9.25-1.72.25-3.61.57-7.09,1.4-10.46,2.46-1.07.25-1.97.57-2.71.98-.41.08-.64.12-.68.12s-.06.04-.06.12l1.48-.62c0,.08-.9.49-2.71,1.23-2.38.82-5.62,2.67-9.72,5.54l1.6-.98v-.12l-.37.25c-.33.17-.57.33-.74.49-2.54,1.8-5.17,4.22-7.87,7.26l-1.85,2.21h-.12.12l.12-.37.98-.98-.49.62c-2.46,3.28-4.55,6.68-6.27,10.21l-.49,1.11.37-.98c.16-.25.25-.49.25-.74h.12l-.37.74c-2.05,5.74-3.08,9.39-3.08,10.95l-.12,1.11c.08,0,.12-.66.12-1.97l-.12,1.48c-.17,1.15-.25,2.34-.25,3.57,0,3.03.08,5.49.25,7.38,0,1.89-.37,3.57-1.11,5.04-2.46,5-6.36,7.5-11.69,7.5-1.64,0-3.28-.37-4.92-1.11-4.92-2.21-7.46-6.11-7.63-11.69-.17-2.13-.25-4.22-.25-6.27,0-11.97,3.51-23.72,10.52-35.24,7.01-11.52,16.91-20.44,29.7-26.75,11.73-5.49,23.99-8.24,36.78-8.24,1.06,0,5.33.1,12.79.31,7.46.21,17.47,3.46,30.01,9.78,11.89,6.23,20.79,15.09,26.69,26.57,5.49,10.5,8.24,21.73,8.24,33.7s-2.87,24.93-8.61,37.64c-4.26,10.82-10.5,20.34-18.7,28.54-12.05,10.99-26,16.48-41.82,16.48Zm25.22,63.35c-2.3,0-4.51-.53-6.64-1.6-13.7-7.38-25.2-17.38-34.5-30.01-9.31-12.63-15.44-26.57-18.39-41.82-.17-.98-.25-1.93-.25-2.83,0-5.98,3.16-10.17,9.47-12.55,1.06-.33,2.13-.49,3.2-.49,2.21,0,4.61.76,7.2,2.28,2.58,1.52,4.22,3.98,4.92,7.38.7,3.4,1.54,6.75,2.52,10.02,1.06,3.61,1.89,5.7,2.46,6.27l-.86-1.6.86,2.09c2.29,5.09,4.63,9.43,7.01,13.04,1.31,1.89,1.99,2.85,2.03,2.89.04.04.26.31.68.8l-.25-.37c-.17-.25-.49-.62-.98-1.11l2.83,3.44c1.15,1.48,2.34,2.91,3.57,4.31,3.69,4.02,6.31,6.52,7.87,7.5l.98.86c-.57-.49-.94-.82-1.11-.98-.17-.16-.29-.25-.37-.25h.12c.33.33.62.6.86.8.25.21.41.35.49.43,4.43,3.28,8.73,5.99,12.92,8.12,3.85,2.21,5.78,5.82,5.78,10.82,0,2.3-.53,4.51-1.6,6.64-2.38,3.94-5.99,5.9-10.82,5.9Z"/><path class="cls-3" d="m307.25,230.17c-5.74,0-11.36-.9-16.85-2.71-8.78-2.87-15.01-8.53-18.7-16.97-2.13-5.33-3.2-10.74-3.2-16.24,0-7.3,2.42-16.15,7.26-26.57l.86-1.85c.57-.74.86-1.43.86-2.09l-.86,1.97.62-1.23c.57-1.56,1.19-3.08,1.85-4.55l6.15-16.24c3.2-8.94,6.68-17.79,10.46-26.57l21.77,13.28c-.57,1.15-1.11,2.34-1.6,3.57l-.12.12.62-1.48-4.18,9.96c-2.21,5.09-4.35,10.17-6.4,15.25-7.95,19.35-15.46,34.4-22.51,45.14-7.05,10.74-15.62,18.25-25.71,22.51-4.92,2.21-10.01,3.32-15.25,3.32l-2.58-.12c-11.64-1.15-20.95-6.48-27.92-15.99-6.15-8.53-9.31-18.08-9.47-28.66.25-9.18,3.44-22.1,9.59-38.75.08-.16.12-.37.12-.62,3.69-10.9,8-21.53,12.92-31.86,2.29-3.94,5.82-5.9,10.58-5.9,2.46,0,4.75.57,6.89,1.72,3.94,2.38,5.9,5.86,5.9,10.46,0,2.38-.57,4.72-1.72,7.01l-1.48,3.32c.25-.66.39-1.05.43-1.17.04-.12.1-.25.18-.37.08-.12.25-.47.49-1.05l-.12.25-.18.55c-.04.12-.1.23-.18.31-1.07,2.46-2.09,4.96-3.08,7.5-5.9,14.43-10.33,27.39-13.28,38.87l-1.72,8,.25-2.34-.12,4.18.12,2.46c-.17-.57-.25-.98-.25-1.23l.12.74c0,1.07.53,3.24,1.6,6.52.25.49.37.9.37,1.23-.17-.25-.29-.53-.37-.86-.08-.33-.17-.53-.25-.62v-.25l.12.25c1.39,3.36,2.38,5.17,2.95,5.41l.37.74c-.49-1.15-.86-1.72-1.11-1.72l.12.12c.25.49.96,1.35,2.15,2.58,1.19,1.23,1.95,1.97,2.28,2.21-.17,0-.43-.18-.8-.55s-.6-.55-.68-.55l-.12-.12,3.08,1.97c.66.17,1.06.37,1.23.62-.17,0-.35-.06-.55-.18-.21-.12-.35-.2-.43-.25l-.86-.43c.25.25.57.37.98.37.16.17.78.33,1.85.49l1.72.37c-.49,0-.86-.04-1.11-.12h.86c1.89,0,2.87-.04,2.95-.12,0-.08-.21-.12-.62-.12-.33,0-.62.12-.86.37.08-.16.37-.29.86-.37.9-.16,1.64-.25,2.21-.25l1.48-.49,1.48-.62c1.39-.74,2.71-1.52,3.94-2.34.08,0,.33-.16.74-.49-.08,0-.29.12-.62.37l-.62.49,1.35-.98c1.8-1.56,3.49-3.2,5.04-4.92.16-.25.35-.47.55-.68s.37-.41.49-.62c.12-.2.23-.31.31-.31-.25.25-.39.41-.43.49-.04.08-.14.21-.31.37s-.25.29-.25.37l2.21-3.08c5-7.54,9.39-15.46,13.16-23.74l2.83-6.15,1.6-3.69-.74,1.6c1.15-2.21,3.24-7.09,6.27-14.64l.98-2.21c3.36-8.2,6.85-16.36,10.46-24.48,2.13-3.94,5.7-5.9,10.7-5.9,4.59,0,8.08,1.64,10.46,4.92,1.56,2.3,2.34,4.84,2.34,7.63,0,2.3-.57,4.51-1.72,6.64l-.37.49c.08,0,.12-.02.12-.06s.12-.39.37-1.05l.37-.74-.37.74c0,.33-1,2.93-3.01,7.81-2.01,4.88-3.79,9.53-5.35,13.96-4.18,11.64-7.67,20.46-10.46,26.45-.08.08-.17.29-.25.62l-.62,1.23.62-1.23-.62,1.23c-1.64,4.18-2.71,7.3-3.2,9.35-.49,1.64-.74,2.63-.74,2.95l-.25.74v-.25c0-.08.02-.2.06-.37.04-.16.06-.31.06-.43s.04-.18.12-.18l-.12,4.55v1.23l-.25-1.72c.08,0,.14.1.18.31.04.21.06.39.06.55s.04.33.12.49c.08.74.25,1.44.49,2.09,0,.17.06.37.18.62s.18.49.18.74l-.62-1.6,1.35,2.71.62.98c-.08,0-.17-.08-.25-.25-.08-.16-.17-.31-.25-.43-.08-.12-.29-.43-.62-.92l1.72,1.97c-.08,0-.23-.08-.43-.25-.21-.16-.39-.29-.55-.37-.17-.08-.25-.14-.25-.18v-.18l.12.12c.08.08.25.21.49.37.25.17.49.29.74.37.25.08.45.21.62.37l.25.25c-.08,0-.23-.04-.43-.12-.21-.08-.43-.18-.68-.31s-.47-.23-.68-.31c-.21-.08-.31-.16-.31-.25.16,0,.33.04.49.12.16.08.29.17.37.25l1.6.49c2.95.74,4.59,1.11,4.92,1.11l.62.12-2.09-.37,1.97.25c2.21.25,4.51.37,6.89.37.9,0,1.35-.12,1.35-.37l-2.09.37,1.97-.37,1.23-.37.12.12-1.97.74,1.35-.74,2.34-.98c3.12-1.64,4.96-2.75,5.54-3.32.41-.16.74-.41.98-.74-.08.08-.23.21-.43.37-.21.17-.41.33-.62.49-.21.17-.33.27-.37.31s-.1.06-.18.06l.62-.49c2.62-2.05,5.04-4.35,7.26-6.89l.43-.43.62-.62c.2-.2.35-.43.43-.68l-1.35,1.72c.08,0,.16-.08.25-.25.08-.16.16-.31.25-.43.08-.12.16-.23.25-.31.82-.98,1.56-1.97,2.21-2.95,2.95-4.43,5.21-8.49,6.77-12.18l.74-1.35-.74,1.6c.16-.41.33-.8.49-1.17.16-.37.29-.72.37-1.05,1.39-3.44,2.64-6.93,3.75-10.46,1.11-3.52,3.14-6.07,6.09-7.63,1.89-1.06,3.94-1.6,6.15-1.6,5,0,8.69,2.13,11.07,6.4,1.06,2.05,1.6,4.1,1.6,6.15,0,1.15-.17,2.34-.49,3.57-7.71,25.67-20.25,43.38-37.64,53.14-6.64,3.77-13.82,5.66-21.53,5.66Z"/><path class="cls-2" d="m447.22,229.8c-11.48,0-20.62-3.73-27.43-11.19-4.92-5.33-8.08-11.56-9.47-18.7-.74-4.18-1.11-8.32-1.11-12.42,0-6.4,1.15-15.17,3.44-26.32l.37-2.09c2.62-14.59,5.7-29.07,9.23-43.42,3.69-14.27,8.16-28.29,13.41-42.07,3.28-8.77,6.52-16.36,9.72-22.76,2.46-5.49,5.33-10.74,8.61-15.74,4.1-6.56,9.47-11.77,16.11-15.62,4.92-2.46,9.88-3.69,14.88-3.69,3.12,0,6.27.45,9.47,1.35,8.53,3.12,14.31,8.9,17.34,17.34,1.06,3.69,1.6,7.42,1.6,11.19,0,2.13-.17,4.26-.49,6.4-3.69,23.7-13.45,48.54-29.27,74.54-12.55,20.58-28.99,42.6-49.32,66.05-8.94,10.5-19.31,19.23-31.12,26.2-8.69,4.92-17.39,7.38-26.08,7.38-6.15,0-12.1-1.39-17.84-4.18-6.48-3.61-11.25-8.61-14.33-15.01-3.08-6.4-4.78-13.16-5.1-20.3,0-7.87.86-15.05,2.58-21.53,6.4-22.88,18-40.22,34.81-52.03,7.79-5.08,16.28-7.63,25.46-7.63,6.56,0,12.79,1.64,18.7,4.92,6.31,3.69,11.48,8.73,15.5,15.13,3.36,5.41,5.04,11.19,5.04,17.34l-.12,3.44c-.49,3.61-1.8,6.56-3.94,8.86-2.13,2.3-5.09,3.57-8.86,3.81-1.64,0-3.28-.37-4.92-1.11-3.03-1.39-5.29-3.73-6.77-7.01-.66-1.48-.98-3.08-.98-4.8.16-.74.25-1.76.25-3.08l-.12-.86c0-.33.04-.57.12-.74v.49c0,.49.08.9.25,1.23l-.12-.25v-.37c-.25-.66-.45-1.35-.62-2.09-.08-.33-.17-.53-.25-.62h-.12v.37l.86,1.23c-.25-.33-.43-.66-.55-.98-.12-.33-.25-.62-.37-.86s-.31-.53-.55-.86l-.98-1.23,1.23,1.23c-.98-1.06-1.93-2.03-2.83-2.89-.9-.86-1.72-1.7-2.46-2.52l1.48,1.48c0-.25-.14-.45-.43-.62-.29-.16-.51-.33-.68-.49-1.15-.9-2.05-1.48-2.71-1.72l-.98-.37c0,.17.57.33,1.72.49-.82-.16-1.64-.45-2.46-.86-.49,0-.88-.04-1.17-.12-.29-.08-.51-.16-.68-.25.41.33.94.49,1.6.49l.12-.12c0-.08-.04-.12-.12-.12s-.41-.04-.98-.12c-.57-.08-1.6-.12-3.08-.12-.33.08-.7.12-1.11.12s-.62.04-.62.12.12.12.37.12.66-.16,1.23-.49c-.66.25-1.33.41-2.03.49-.7.08-1.33.21-1.91.37-.57.17-1.23.33-1.97.49l-1.35.49v.12c.16,0,.35-.02.55-.06.2-.04.47-.23.8-.55l-2.34,1.23c-.98.25-2.3.98-3.94,2.21-.49.25-.86.49-1.11.74h-.12l.62-.62.74-.37-1.35,1.23c-1.72,1.15-4.02,3.4-6.89,6.77-.33.33-.49.62-.49.86v.12c.08,0,.33-.45.74-1.35-.17.33-.45.72-.86,1.17-.41.45-1.44,1.87-3.08,4.24-2.46,3.61-4.47,7.13-6.03,10.58-.57.98-.86,1.56-.86,1.72v.12l.62-1.23v-.25c-.49,1.23-.76,1.91-.8,2.03-.04.12-.1.23-.18.31-2.13,5.49-3.73,11.11-4.8,16.85l-.12.62c0-.66.08-1.15.25-1.48v-.37c0,.98-.06,1.97-.18,2.95s-.23,2.05-.31,3.2c0,2.3.08,3.94.25,4.92v.74l.25.74.12-.25-.49-1.72,1.72,6.77-.49-1.35.49,1.35c.33.9.7,1.6,1.11,2.09.16.17.33.37.49.62.16.25.25.41.25.49-.08,0-.23-.12-.43-.37-.21-.25-.35-.49-.43-.74l-.25-.37c.57.49,1.06,1,1.48,1.54.41.53.78.94,1.11,1.23.33.29.49.47.49.55h-.12l-1.35-1.11c.16,0,.62.25,1.35.74s1.27.74,1.6.74l.37.12c0-.16-.66-.37-1.97-.62.57.08,1.15.29,1.72.62l3.2.86c-.57-.16-1.19-.29-1.85-.37.98,0,1.76.04,2.34.12.57.08,1.15.12,1.72.12.41,0,.78-.04,1.11-.12h1.23c-.33.17-.7.25-1.11.25h-.25v-.12c.57,0,2.01-.33,4.31-.98l2.58-.98c.41-.16.78-.25,1.11-.25l-1.6.74,1.48-.62,2.09-.98c2.46-1.39,4.8-2.79,7.01-4.18.25-.25,1.03-.74,2.34-1.48.57-.33.94-.66,1.11-.98l-1.35.98,3.2-2.46c6.81-5.74,13.65-12.75,20.54-21.03,3.44-4.35,5.54-6.89,6.27-7.63v-.12c0,.08-.06.17-.18.25-.12.08-.21.17-.25.25-.04.08-.23.33-.55.74l4.67-5.9c19.27-24.03,33.74-46.29,43.42-66.79l.98-2.34c.08-.08.14-.18.18-.31.04-.12.12-.31.25-.55s.18-.49.18-.74h.12v.12c-.08.17-.21.41-.37.74-.17.33-.25.57-.25.74l.49-1.11c0-.16.04-.29.12-.37l.74-1.97c4.59-11.15,7.95-22.06,10.09-32.72,0-.66.08-1.27.25-1.85l-.37,2.34.25-.98v-.49c.16-1.06.25-3.4.25-7.01l.25.62c0,.66.04,1.03.12,1.11v.12c-.08,0-.14-.16-.18-.49-.04-.33-.35-1.39-.92-3.2,0-.25.04-.37.12-.37,0,.33.1.64.31.92.2.29.31.51.31.68l.12.25h-.12c-.41-.66-.7-1.13-.86-1.41-.17-.29-.29-.47-.37-.55l.12.12c0,.17.33.57.98,1.23l.12.25-1.35-1.23,1.6,1.23c-.17-.08-.31-.16-.43-.25-.12-.08-.27-.18-.43-.31-.17-.12-.29-.18-.37-.18l-1.23-.74,1.72.86c-.17-.08-.31-.14-.43-.18-.12-.04-.68-.18-1.66-.43l1.97.25c-.41-.08-1.35-.12-2.83-.12h-.62v-.12l.25-.12h1.35c-.08.08-.25.14-.49.18-.25.04-.49.08-.74.12-.25.04-.51.1-.8.18-.29.08-.6.21-.92.37-.33.17-.7.29-1.11.37l1.6-.49c-.17,0-.45.1-.86.31-.41.21-.74.37-.98.49s-.49.27-.74.43c-.25.17-.41.25-.49.25.41-.41.86-.74,1.35-.98h.12l-1.48,1.35c-1.31,1.15-2.17,2.05-2.58,2.71l-.86.98c.33-.16.62-.37.86-.62l.25-.62-.25.12c-.9.9-2.58,3.44-5.04,7.63-3.03,5.58-5.82,11.28-8.36,17.1l.62-1.48c-.41.66-.78,1.52-1.11,2.58l-1.72,4.31c-2.46,6.32-5.66,15.46-9.59,27.43-5.09,16.32-9.76,35.92-14.02,58.79l-1.85,10.21-.12.74c-.49,2.13-.74,3.57-.74,4.31l-.25,1.72.12-.37v-1.48l-.25,3.81c-.25,2.54-.37,5.04-.37,7.5l.12,4.31c-.08,0-.12-.25-.12-.74l.37,1.85c.49,2.3.9,3.61,1.23,3.94l-.62-1.11,1.6,2.95c0,.17.25.49.74.98v.25l-.12-.25c-.08-.08-.25-.29-.49-.62-.25-.33-.37-.53-.37-.62v-.12c0,.25.18.53.55.86.37.33.55.57.55.74.74.74,1.43,1.35,2.09,1.85l-1.48-1.11,3.44,2.09-.62-.12-1.23-.62c.33,0,.74.12,1.23.37l2.58.74c.9,0,1.39-.04,1.48-.12h-2.21c.9,0,1.6.08,2.09.25l4.8-.12h-.49c2.13-.41,3.85-.9,5.17-1.48.9-.33,1.76-.57,2.58-.74l-1.72.49v.12l1.35-.49c1.72-.57,4.31-1.97,7.75-4.18l1.6-1.11-1.35.98c0-.16.14-.31.43-.43.29-.12.55-.31.8-.55,1.06-.74,2.09-1.56,3.08-2.46,4.43-3.69,8.57-7.71,12.42-12.05l.86-.74c1.06-1.06,1.72-1.89,1.97-2.46l-1.11,1.23,2.34-2.95c2.29-3.2,4.35-6.56,6.15-10.09l.62-1.35h.12l-.25.49c-.25.49-.37.82-.37.98l-.12.25.98-2.83c2.54-5.98,6.72-8.98,12.55-8.98,4.75,0,8.36,2.13,10.82,6.4,1.06,1.97,1.6,3.98,1.6,6.03,0,1.15-.17,2.34-.49,3.57-4.92,13.53-14.39,26.61-28.41,39.24-7.22,6.56-15.17,11.56-23.86,15.01-5.82,2.3-11.85,3.44-18.08,3.44Z"/><path class="cls-4" d="m523.85,229.55c-8.36-.08-15.91-2.46-22.63-7.13-8.86-6.07-13.28-15.33-13.28-27.8,0-8.04,2.46-19.02,7.38-32.96l1.11-3.32c5-14.84,10.7-29.4,17.1-43.67.74-1.48,1.85-2.71,3.32-3.69,2.54-1.56,5.08-2.34,7.63-2.34,4.35,0,7.75,1.68,10.21,5.04,1.56,2.3,2.34,4.76,2.34,7.38,0,2.38-.57,4.67-1.72,6.89-.17.17-.49.82-.98,1.97l-.25.49.74-1.35-2.95,6.89c-6.64,15.5-12.34,32.15-17.1,49.94-.66,2.54-1.11,4.63-1.35,6.27,0-.57.08-1.19.25-1.85,0,.74-.08,1.27-.25,1.6-.08,1.31-.12,2.83-.12,4.55.08.33.12.86.12,1.6l.12-.86c0-.49-.08-.74-.25-.74h-.12l.86,3.57.12-.37c0-.08-.06-.29-.18-.62-.12-.33-.27-.53-.43-.62-.08,0-.12.04-.12.12l.12.25c.08.25.18.45.31.62.12.17.23.31.31.43.08.12.29.51.62,1.17,0-.16-.12-.45-.37-.86l-.49-.37v.12c1.48,1.48,2.23,2.26,2.28,2.34.04.08.06.17.06.25l-.12-.12c-.08,0-.18-.06-.31-.18s-.23-.23-.31-.31c-.08-.08-.29-.29-.62-.62l1.6.86c.9.41,1.68.86,2.34,1.35l-1.72-.74c1.64.66,3.2,1.07,4.67,1.23l.49.25c-1.31-.16-1.97-.29-1.97-.37.57,0,.94.08,1.11.25h4.55l1.23-.12-.98.12c1.06,0,3.32-.57,6.77-1.72l1.48-.74-1.6.86,3.2-1.6c2.95-1.48,5-2.66,6.15-3.57.49-.25.74-.45.74-.62v-.12c-.25,0-.57.37-.98,1.11.25-.49.9-1.06,1.97-1.72l1.11-.74c4.51-3.94,8.44-7.95,11.81-12.05l1.11-1.48-1.11,1.48,1.11-1.35c5-6.89,9.23-13.36,12.67-19.43,2.46-3.94,6.11-5.9,10.95-5.9,2.21,0,4.39.57,6.52,1.72,3.94,2.46,5.9,6.03,5.9,10.7,0,2.38-.57,4.63-1.72,6.77-7.46,13.86-16.97,26.16-28.54,36.9-12.47,11.15-25.75,16.81-39.85,16.97Zm14.39-137.51h-3.2c-3.28-.08-5.82-1.03-7.63-2.83l-1.48-1.11c-2.13-2.38-3.2-4.63-3.2-6.77-.17-.57-.25-1.48-.25-2.71,0-1.56.37-3.03,1.11-4.43.57-1.56,1.48-2.93,2.71-4.12,1.23-1.19,2.62-2.03,4.18-2.52,1.31-.66,2.75-.98,4.31-.98h3.2c2.29.08,4.47.7,6.52,1.85.82.74,1.68,1.44,2.58,2.09,1.48,1.64,2.5,3.53,3.08,5.66.25,1.23.37,2.5.37,3.81,0,1.56-.37,3.03-1.11,4.43-.57,1.56-1.52,2.91-2.83,4.06-1.15,1.23-2.5,2.09-4.06,2.58-1.31.66-2.75.98-4.31.98Z"/></svg>